<svg xmlns="http://www.w3.org/2000/svg" width="144.161" height="163.13" viewBox="-72 -72 108.121 122.347"><g stroke="#000" stroke-miterlimit="10" stroke-width="10" transform="matrix(1 0 0 -1 -18.21 47.232)"><clipPath id="pgf964030463eb1e6d3e869101b9b36f815cp1"><path d="M-54.06-2.845v122.347H54.06V-2.845ZM54.06 119.502"/></clipPath><g clip-path="url(#pgf964030463eb1e6d3e869101b9b36f815cp1)"><clipPath id="pgf964030463eb1e6d3e869101b9b36f815cp2"><path d="M-51.215 0v116.656h102.43V0Zm102.43 116.656"/></clipPath><g clip-path="url(#pgf964030463eb1e6d3e869101b9b36f815cp2)"><path fill="none" stroke="red" stroke-width="1.6" d="m-51.215 51.784.463-.83.463-.823.464-.815.463-.807.463-.8.463-.793.464-.784.463-.778.463-.77.463-.761.464-.755.463-.747.463-.74.463-.732.464-.724.463-.717.463-.71.463-.701.464-.695.463-.686.463-.68.463-.671.464-.665.463-.656.463-.65.463-.64.464-.635.463-.626.463-.619.463-.612.464-.603.463-.597.463-.588.463-.581.463-.574.464-.566.463-.559.463-.55.463-.544.464-.536.463-.528.463-.521.463-.513.464-.506.463-.499.463-.49.463-.483.464-.476.463-.468.463-.46.463-.453.464-.446.463-.438.463-.43.463-.423.464-.415.463-.408.463-.4.463-.393.464-.384.463-.378.463-.37.463-.363.464-.355.463-.347.463-.34.463-.332.463-.325.464-.317.463-.31.463-.302.463-.294.464-.287.463-.28.463-.272.463-.264.464-.257.463-.25.463-.241.463-.235.464-.226.463-.22.463-.21.463-.205.464-.197.463-.188.463-.182.463-.174.464-.166.463-.16.463-.15.463-.144.464-.136.463-.129.463-.121.463-.114.464-.106.463-.098.463-.09.463-.084.463-.076.464-.068.463-.061.463-.054.463-.045.464-.038.463-.031.463-.023.463-.015.464-.009h.463l.463.007.463.015.464.022.463.03.463.037.463.045.464.052.463.06.463.067.463.076.464.082.463.09.463.098.463.105.464.113.463.12.463.128.463.135.464.143.463.15.463.158.463.165.463.174.464.18.463.188.463.196.463.203.464.21.463.22.463.225.463.234.464.24.463.249.463.256.463.263.464.271.463.28.463.285.463.294.464.301.463.309.463.316.463.324.464.331.463.34.463.346.463.354.464.362.463.369.463.376.463.384.464.393.463.399.463.406.463.415.464.422.463.43.463.437.463.444.463.452.464.46.463.467.463.475.463.482.464.49.463.497.463.505.463.512.464.52.463.528.463.535.463.543.464.55.463.557.463.565.463.573.464.58.463.588.463.596.463.603.464.61.463.618.463.626.463.633.464.64.463.649.463.655.463.664.464.67.463.679.463.686.463.693.463.701.464.709.463.716.463.723.463.731.464.739.463.746.463.754.463.761.464.77.463.776.463.784.463.791.464.799.463.807.463.814.463.822.464.829"/><g fill="#ff0900" stroke="#ff0400"><path d="M46.922 96.74a4.243 4.243 0 1 1-8.486 0 4.243 4.243 0 0 1 8.486 0Zm-4.243 0"/></g><g fill="red" stroke="#ff0200"><path d="M-25.624 88.204a2.829 2.829 0 1 1-5.657 0 2.829 2.829 0 0 1 5.657 0Zm-2.829 0"/></g></g></g></g></svg>